# xmcd
#
# Track frame offsets: 
#        150
#        20255
#        35711
#        38703
#        57771
#
# Disc length: 1040 seconds
#
# Revision: 0
# Processed by: cddbd v1.5.2PL0 Copyright (c) Steve Scherf et al.
# Submitted via: ExactAudioCopy v1.0b3
#
DISCID=36040e05
DTITLE=PimpStrut Local #13 - Playon Playaz
DYEAR=2015
DGENRE=Funk
TTITLE0=Playon Playaz (New Mixx)
TTITLE1=I Don't Know Why
TTITLE2=Life's Glory
TTITLE3=The Glory of Life's Glory
TTITLE4=Playon Playaz (Instrumental)
EXTD=
EXTT0=
EXTT1=
EXTT2=
EXTT3=
EXTT4=
PLAYORDER=
